<svg width="36" height="36" viewBox="0 0 36 36" xmlns="http://www.w3.org/2000/svg"><path d="M11.070 0.238 C 8.904 0.284,8.629 0.311,7.500 0.600 C 6.341 0.895,5.039 1.492,4.113 2.151 C 3.469 2.609,2.514 3.571,2.049 4.230 C 1.235 5.382,0.573 7.121,0.277 8.880 C 0.109 9.874,0.057 11.420,0.021 16.410 C -0.015 21.252,0.049 25.152,0.183 26.389 C 0.392 28.307,1.044 30.268,1.893 31.530 C 2.774 32.840,4.047 33.970,5.409 34.655 C 6.488 35.196,8.167 35.654,9.679 35.818 C 10.551 35.912,20.289 35.961,23.610 35.888 C 26.515 35.823,26.906 35.791,28.139 35.512 C 31.138 34.834,33.433 33.077,34.687 30.497 C 35.222 29.396,35.667 27.790,35.827 26.382 C 35.865 26.051,35.902 23.330,35.920 19.590 C 35.954 12.649,35.901 10.042,35.702 8.850 C 35.012 4.712,32.790 1.990,29.100 0.762 C 28.304 0.497,27.700 0.376,26.790 0.299 C 25.900 0.223,13.967 0.177,11.070 0.238 M25.920 3.481 C 28.482 3.679,30.171 4.517,31.271 6.136 C 31.859 7.002,32.325 8.234,32.455 9.270 C 32.595 10.380,32.653 13.950,32.620 19.560 C 32.580 26.471,32.531 27.213,32.028 28.447 C 31.140 30.624,29.676 31.834,27.283 32.367 C 26.226 32.602,25.797 32.628,21.727 32.704 C 17.890 32.776,11.178 32.705,9.923 32.580 C 7.951 32.383,6.451 31.747,5.408 30.664 C 4.185 29.397,3.654 28.126,3.475 26.040 C 3.381 24.937,3.335 14.589,3.413 11.850 C 3.484 9.334,3.537 8.882,3.876 7.862 C 4.433 6.189,5.449 4.991,6.930 4.260 C 7.940 3.762,8.633 3.577,9.840 3.485 C 10.758 3.415,25.022 3.411,25.920 3.481 M26.970 6.610 C 26.498 6.789,26.012 7.258,25.739 7.798 C 25.620 8.036,25.608 8.126,25.639 8.578 C 25.689 9.316,25.813 9.624,26.224 10.028 C 26.715 10.510,27.147 10.704,27.720 10.702 C 28.369 10.699,28.789 10.522,29.255 10.055 C 29.821 9.489,30.040 8.778,29.851 8.121 C 29.665 7.472,29.231 6.944,28.687 6.704 C 28.363 6.560,27.260 6.500,26.970 6.610 M16.710 8.884 C 15.230 9.083,13.192 10.006,12.075 10.983 C 11.430 11.547,10.636 12.426,10.289 12.960 C 9.192 14.646,8.633 16.828,8.817 18.709 C 8.942 19.992,9.203 20.926,9.751 22.050 C 10.161 22.892,10.437 23.304,11.021 23.948 C 12.298 25.356,13.362 26.098,14.976 26.705 C 15.987 27.085,16.401 27.146,17.940 27.146 C 18.805 27.146,19.452 27.117,19.740 27.065 C 20.689 26.896,22.257 26.238,23.160 25.632 C 23.615 25.326,25.079 23.905,25.459 23.400 C 25.989 22.695,26.582 21.446,26.955 20.250 L 27.142 19.650 27.136 18.030 C 27.131 16.499,27.122 16.379,26.979 15.840 C 26.675 14.691,25.993 13.300,25.322 12.459 C 24.833 11.846,23.660 10.740,23.115 10.379 C 22.038 9.665,20.733 9.145,19.578 8.970 C 18.855 8.861,17.241 8.812,16.710 8.884 M19.110 12.189 C 20.755 12.397,22.493 13.740,23.371 15.480 C 23.775 16.282,23.835 16.560,23.864 17.760 C 23.897 19.150,23.832 19.503,23.367 20.458 C 22.690 21.848,21.859 22.726,20.640 23.339 C 17.439 24.949,13.524 23.306,12.354 19.860 C 12.170 19.320,12.159 19.233,12.133 18.208 C 12.109 17.237,12.120 17.070,12.239 16.588 C 12.488 15.577,13.080 14.520,13.800 13.800 C 14.634 12.966,15.984 12.259,17.008 12.121 C 17.414 12.066,18.387 12.098,19.110 12.189 " stroke="none" fill-rule="evenodd"></path></svg>