<svg xmlns="http://www.w3.org/2000/svg" width="24" height="24" viewBox="0 0 24 24" fill="#000000" stroke="#000000" stroke-width="2" stroke-linecap="round" stroke-linejoin="round" class="feather feather-star"><path d="M11.746 1.044 C 11.501 1.102,11.385 1.192,11.196 1.469 C 11.099 1.611,10.390 2.991,9.620 4.534 L 8.220 7.340 8.040 7.370 C 7.941 7.386,7.005 7.526,5.960 7.680 C 2.459 8.197,1.710 8.320,1.530 8.406 C 1.072 8.625,0.877 9.244,1.117 9.714 C 1.164 9.807,1.907 10.565,2.988 11.624 C 3.974 12.589,5.037 13.631,5.350 13.940 L 5.920 14.500 5.619 16.240 C 5.026 19.657,4.832 20.890,4.849 21.127 C 4.882 21.601,5.253 21.962,5.738 21.993 C 6.077 22.014,6.141 21.985,8.640 20.673 C 9.795 20.066,11.024 19.422,11.370 19.241 L 12.001 18.913 13.490 19.692 C 14.310 20.120,15.520 20.755,16.180 21.103 C 17.705 21.906,17.915 21.999,18.200 21.999 C 18.719 21.998,19.160 21.558,19.160 21.040 C 19.160 20.963,19.098 20.513,19.022 20.040 C 18.897 19.259,18.147 14.842,18.098 14.598 C 18.079 14.506,18.323 14.255,20.418 12.206 C 21.899 10.757,22.799 9.848,22.869 9.729 C 22.962 9.570,22.980 9.495,22.979 9.260 C 22.977 8.928,22.883 8.714,22.651 8.522 C 22.403 8.317,22.529 8.340,18.300 7.720 C 17.398 7.588,16.462 7.448,16.220 7.410 L 15.780 7.340 14.300 4.394 C 13.486 2.773,12.789 1.403,12.751 1.347 C 12.602 1.129,12.067 0.967,11.746 1.044 " stroke="none" fill-rule="evenodd"></path></svg>